<svg width="99" height="42" viewBox="0 0 99 42" fill="none" xmlns="http://www.w3.org/2000/svg">
<path fill-rule="evenodd" clip-rule="evenodd" d="M99 26.2495C99 34.9478 91.9074 41.9989 83.1605 41.9989C74.4135 41.9989 67.3209 34.9478 67.3209 26.2495C67.3209 17.5511 74.4124 10.5 83.1605 10.5C87.2172 10.5 90.9178 12.0162 93.7205 14.5101V0H99V26.2495ZM83.1605 37.4062C89.3573 37.4062 94.381 32.411 94.381 26.2495C94.381 20.0879 89.3573 15.0927 83.1605 15.0927C76.9637 15.0927 71.9399 20.0879 71.9399 26.2495C71.9399 32.411 76.9637 37.4062 83.1605 37.4062ZM0 26.2495C0 17.5511 7.09255 10.5 15.8395 10.5C24.5865 10.5 31.679 17.5511 31.679 26.2495V42H26.3996V37.9899C23.5969 40.4838 19.8963 42 15.8395 42C7.09255 42 0 34.9489 0 26.2495ZM15.8395 37.4062C22.0363 37.4062 27.06 32.411 27.06 26.2495C27.06 20.0879 22.0363 15.0927 15.8395 15.0927C9.64272 15.0927 4.62009 20.089 4.62009 26.2495C4.62009 32.41 9.6438 37.4062 15.8395 37.4062ZM61.9961 10.5C56.9476 10.5 52.4506 13.672 50.7832 18.4107L45.8749 32.3563C44.9479 34.9886 42.4506 36.7505 39.6458 36.7505H35.6419V42H39.6458C44.6943 42 49.1913 38.828 50.8587 34.0893L55.767 20.1437C56.694 17.5114 59.1913 15.7495 61.9961 15.7495H64.6801V10.5H61.9961Z" fill="white"/>
</svg>
